# xmcd CD database file
#
# Track frame offsets:
#	150
#	19493
#	50070
#	63935
#	77509
#	93418
#	109584
#	132503
#	148634
#	163925
#	190068
#
# Disc length: 2755 seconds
#
# Revision: 0
# Processed by: cddbd v1.5.1PL0 Copyright (c) Steve Scherf et al.
# Submitted via: CDex 1.50beta10
#
DISCID=980ac10b
DTITLE=DUCLOS Alain et Marie - OSMOSE
DYEAR=1900
DGENRE=Musique Religieuse
TTITLE0=Fais ton choix
TTITLE1=Venons à Jésus
TTITLE2=Tu es le Roi
TTITLE3=Je suis délivré
TTITLE4=Tout est possible
TTITLE5=L'Esprit du Seigneur
TTITLE6=Célébrons ton nom
TTITLE7=Je te glorifirais
TTITLE8=Jésus-Christ
TTITLE9=Envoies ta lumière
TTITLE10=Marchons ensemble
EXTD=
EXTT0=
EXTT1=
EXTT2=
EXTT3=
EXTT4=
EXTT5=
EXTT6=
EXTT7=
EXTT8=
EXTT9=
EXTT10=
PLAYORDER=
